<svg width="24" height="24" viewBox="0 0 24 24" fill="none" xmlns="http://www.w3.org/2000/svg">
<path d="M8.7164 5.18137C10.7915 4.18206 13.2087 4.18206 15.2838 5.18137C17.3589 6.18067 18.866 8.07053 19.3785 10.316C19.891 12.5614 19.3531 14.918 17.9171 16.7187C16.4811 18.5194 14.3033 19.5682 12.0001 19.5682C9.69692 19.5682 7.51909 18.5194 6.08308 16.7187C4.64708 14.918 4.1092 12.5614 4.6217 10.316C5.13421 8.07053 6.64131 6.18067 8.7164 5.18137Z" fill="#C2CCDE" fill-opacity="0.25"/>
<path d="M9.90009 10.2C9.90009 10.5314 9.63146 10.8 9.30009 10.8C8.96872 10.8 8.70009 10.5314 8.70009 10.2C8.70009 9.86865 8.96872 9.60002 9.30009 9.60002C9.63146 9.60002 9.90009 9.86865 9.90009 10.2Z" fill="#C2CCDE" fill-opacity="0.25"/>
<path d="M15.3001 10.2C15.3001 10.5314 15.0315 10.8 14.7001 10.8C14.3687 10.8 14.1001 10.5314 14.1001 10.2C14.1001 9.86865 14.3687 9.60002 14.7001 9.60002C15.0315 9.60002 15.3001 9.86865 15.3001 10.2Z" fill="#C2CCDE" fill-opacity="0.25"/>
<path d="M15.1821 15.182C14.3382 16.0259 13.1936 16.5 12.0001 16.5C10.8066 16.5 9.66202 16.0259 8.81811 15.182M4.6217 10.316C5.13421 8.07053 6.64131 6.18067 8.7164 5.18137C10.7915 4.18206 13.2087 4.18206 15.2838 5.18137C17.3589 6.18067 18.866 8.07053 19.3785 10.316C19.891 12.5614 19.3531 14.918 17.9171 16.7187C16.4811 18.5194 14.3033 19.5682 12.0001 19.5682C9.69692 19.5682 7.51909 18.5194 6.08308 16.7187C4.64708 14.918 4.1092 12.5614 4.6217 10.316ZM9.90009 10.2C9.90009 10.5314 9.63146 10.8 9.30009 10.8C8.96872 10.8 8.70009 10.5314 8.70009 10.2C8.70009 9.86865 8.96872 9.60002 9.30009 9.60002C9.63146 9.60002 9.90009 9.86865 9.90009 10.2ZM15.3001 10.2C15.3001 10.5314 15.0315 10.8 14.7001 10.8C14.3687 10.8 14.1001 10.5314 14.1001 10.2C14.1001 9.86865 14.3687 9.60002 14.7001 9.60002C15.0315 9.60002 15.3001 9.86865 15.3001 10.2Z" stroke="#414141" stroke-linecap="round" stroke-linejoin="round"/>
</svg>
