<svg width="27" height="29" viewBox="0 0 27 29" fill="none" xmlns="http://www.w3.org/2000/svg">
<g id="u:calendar-alt" clip-path="url(#clip0_307_3816)" filter="url(#filter0_d_307_3816)">
<path id="Vector" d="M11.5129 15.9082C11.62 15.9082 11.7247 15.8764 11.8138 15.8169C11.9029 15.7574 11.9723 15.6728 12.0133 15.5738C12.0543 15.4748 12.065 15.3659 12.0441 15.2609C12.0232 15.1558 11.9716 15.0593 11.8959 14.9835C11.8201 14.9078 11.7236 14.8562 11.6185 14.8353C11.5135 14.8144 11.4045 14.8251 11.3056 14.8661C11.2066 14.9071 11.122 14.9765 11.0625 15.0656C11.003 15.1547 10.9712 15.2594 10.9712 15.3665C10.9712 15.5102 11.0283 15.648 11.1298 15.7496C11.2314 15.8511 11.3692 15.9082 11.5129 15.9082ZM14.2212 15.9082C14.3283 15.9082 14.433 15.8764 14.5221 15.8169C14.6112 15.7574 14.6806 15.6728 14.7216 15.5738C14.7626 15.4748 14.7733 15.3659 14.7524 15.2609C14.7315 15.1558 14.68 15.0593 14.6042 14.9835C14.5285 14.9078 14.4319 14.8562 14.3269 14.8353C14.2218 14.8144 14.1129 14.8251 14.0139 14.8661C13.9149 14.9071 13.8303 14.9765 13.7708 15.0656C13.7113 15.1547 13.6795 15.2594 13.6795 15.3665C13.6795 15.5102 13.7366 15.648 13.8382 15.7496C13.9398 15.8511 14.0775 15.9082 14.2212 15.9082ZM14.2212 13.7415C14.3283 13.7415 14.433 13.7098 14.5221 13.6502C14.6112 13.5907 14.6806 13.5061 14.7216 13.4072C14.7626 13.3082 14.7733 13.1993 14.7524 13.0942C14.7315 12.9891 14.68 12.8926 14.6042 12.8169C14.5285 12.7411 14.4319 12.6895 14.3269 12.6686C14.2218 12.6477 14.1129 12.6584 14.0139 12.6994C13.9149 12.7404 13.8303 12.8099 13.7708 12.8989C13.7113 12.988 13.6795 13.0927 13.6795 13.1999C13.6795 13.3435 13.7366 13.4813 13.8382 13.5829C13.9398 13.6845 14.0775 13.7415 14.2212 13.7415ZM11.5129 13.7415C11.62 13.7415 11.7247 13.7098 11.8138 13.6502C11.9029 13.5907 11.9723 13.5061 12.0133 13.4072C12.0543 13.3082 12.065 13.1993 12.0441 13.0942C12.0232 12.9891 11.9716 12.8926 11.8959 12.8169C11.8201 12.7411 11.7236 12.6895 11.6185 12.6686C11.5135 12.6477 11.4045 12.6584 11.3056 12.6994C11.2066 12.7404 11.122 12.8099 11.0625 12.8989C11.003 12.988 10.9712 13.0927 10.9712 13.1999C10.9712 13.3435 11.0283 13.4813 11.1298 13.5829C11.2314 13.6845 11.3692 13.7415 11.5129 13.7415ZM15.3045 7.24154H14.7629V6.69987C14.7629 6.55621 14.7058 6.41844 14.6042 6.31685C14.5026 6.21527 14.3649 6.1582 14.2212 6.1582C14.0775 6.1582 13.9398 6.21527 13.8382 6.31685C13.7366 6.41844 13.6795 6.55621 13.6795 6.69987V7.24154H9.34619V6.69987C9.34619 6.55621 9.28912 6.41844 9.18754 6.31685C9.08596 6.21527 8.94818 6.1582 8.80452 6.1582C8.66087 6.1582 8.52309 6.21527 8.42151 6.31685C8.31993 6.41844 8.26286 6.55621 8.26286 6.69987V7.24154H7.72119C7.29021 7.24154 6.87689 7.41274 6.57214 7.71749C6.2674 8.02223 6.09619 8.43556 6.09619 8.86654V16.4499C6.09619 16.8808 6.2674 17.2942 6.57214 17.5989C6.87689 17.9037 7.29021 18.0749 7.72119 18.0749H15.3045C15.7355 18.0749 16.1488 17.9037 16.4536 17.5989C16.7583 17.2942 16.9295 16.8808 16.9295 16.4499V8.86654C16.9295 8.43556 16.7583 8.02223 16.4536 7.71749C16.1488 7.41274 15.7355 7.24154 15.3045 7.24154ZM15.8462 16.4499C15.8462 16.5935 15.7891 16.7313 15.6875 16.8329C15.586 16.9345 15.4482 16.9915 15.3045 16.9915H7.72119C7.57753 16.9915 7.43976 16.9345 7.33818 16.8329C7.23659 16.7313 7.17952 16.5935 7.17952 16.4499V11.5749H15.8462V16.4499ZM15.8462 10.4915H7.17952V8.86654C7.17952 8.72288 7.23659 8.5851 7.33818 8.48352C7.43976 8.38194 7.57753 8.32487 7.72119 8.32487H8.26286V8.86654C8.26286 9.0102 8.31993 9.14797 8.42151 9.24955C8.52309 9.35113 8.66087 9.4082 8.80452 9.4082C8.94818 9.4082 9.08596 9.35113 9.18754 9.24955C9.28912 9.14797 9.34619 9.0102 9.34619 8.86654V8.32487H13.6795V8.86654C13.6795 9.0102 13.7366 9.14797 13.8382 9.24955C13.9398 9.35113 14.0775 9.4082 14.2212 9.4082C14.3649 9.4082 14.5026 9.35113 14.6042 9.24955C14.7058 9.14797 14.7629 9.0102 14.7629 8.86654V8.32487H15.3045C15.4482 8.32487 15.586 8.38194 15.6875 8.48352C15.7891 8.5851 15.8462 8.72288 15.8462 8.86654V10.4915ZM8.80452 13.7415C8.91166 13.7415 9.01638 13.7098 9.10546 13.6502C9.19454 13.5907 9.26396 13.5061 9.30496 13.4072C9.34596 13.3082 9.35668 13.1993 9.33578 13.0942C9.31488 12.9891 9.26329 12.8926 9.18754 12.8169C9.11179 12.7411 9.01527 12.6895 8.9102 12.6686C8.80513 12.6477 8.69621 12.6584 8.59724 12.6994C8.49826 12.7404 8.41366 12.8099 8.35415 12.8989C8.29463 12.988 8.26286 13.0927 8.26286 13.1999C8.26286 13.3435 8.31993 13.4813 8.42151 13.5829C8.52309 13.6845 8.66087 13.7415 8.80452 13.7415ZM8.80452 15.9082C8.91166 15.9082 9.01638 15.8764 9.10546 15.8169C9.19454 15.7574 9.26396 15.6728 9.30496 15.5738C9.34596 15.4748 9.35668 15.3659 9.33578 15.2609C9.31488 15.1558 9.26329 15.0593 9.18754 14.9835C9.11179 14.9078 9.01527 14.8562 8.9102 14.8353C8.80513 14.8144 8.69621 14.8251 8.59724 14.8661C8.49826 14.9071 8.41366 14.9765 8.35415 15.0656C8.29463 15.1547 8.26286 15.2594 8.26286 15.3665C8.26286 15.5102 8.31993 15.648 8.42151 15.7496C8.52309 15.8511 8.66087 15.9082 8.80452 15.9082Z" fill="#535353"/>
</g>
<defs>
<filter id="filter0_d_307_3816" x="-0.987061" y="-0.383301" width="29" height="29" filterUnits="userSpaceOnUse" color-interpolation-filters="sRGB">
<feFlood flood-opacity="0" result="BackgroundImageFix"/>
<feColorMatrix in="SourceAlpha" type="matrix" values="0 0 0 0 0 0 0 0 0 0 0 0 0 0 0 0 0 0 127 0" result="hardAlpha"/>
<feOffset dx="2" dy="2"/>
<feGaussianBlur stdDeviation="4"/>
<feColorMatrix type="matrix" values="0 0 0 0 0 0 0 0 0 0 0 0 0 0 0 0 0 0 0.1 0"/>
<feBlend mode="normal" in2="BackgroundImageFix" result="effect1_dropShadow_307_3816"/>
<feBlend mode="normal" in="SourceGraphic" in2="effect1_dropShadow_307_3816" result="shape"/>
</filter>
<clipPath id="clip0_307_3816">
<rect width="13" height="13" fill="white" transform="translate(5.01294 5.6167)"/>
</clipPath>
</defs>
</svg>
