<svg width="14" height="16" viewBox="0 0 14 16" fill="none" xmlns="http://www.w3.org/2000/svg">
<path d="M6.99992 12.6665C7.13177 12.6665 7.26067 12.6274 7.3703 12.5542C7.47993 12.4809 7.56538 12.3768 7.61584 12.255C7.6663 12.1331 7.6795 11.9991 7.65378 11.8698C7.62805 11.7405 7.56456 11.6217 7.47132 11.5284C7.37809 11.4352 7.2593 11.3717 7.12998 11.346C7.00066 11.3203 6.86661 11.3335 6.7448 11.3839C6.62298 11.4344 6.51886 11.5198 6.44561 11.6295C6.37235 11.7391 6.33325 11.868 6.33325 11.9998C6.33325 12.1766 6.40349 12.3462 6.52851 12.4712C6.65354 12.5963 6.82311 12.6665 6.99992 12.6665ZM10.3333 12.6665C10.4651 12.6665 10.594 12.6274 10.7036 12.5542C10.8133 12.4809 10.8987 12.3768 10.9492 12.255C10.9996 12.1331 11.0128 11.9991 10.9871 11.8698C10.9614 11.7405 10.8979 11.6217 10.8047 11.5284C10.7114 11.4352 10.5926 11.3717 10.4633 11.346C10.334 11.3203 10.1999 11.3335 10.0781 11.3839C9.95631 11.4344 9.85219 11.5198 9.77894 11.6295C9.70568 11.7391 9.66658 11.868 9.66658 11.9998C9.66658 12.1766 9.73682 12.3462 9.86185 12.4712C9.98687 12.5963 10.1564 12.6665 10.3333 12.6665ZM10.3333 9.99984C10.4651 9.99984 10.594 9.96074 10.7036 9.88748C10.8133 9.81423 10.8987 9.71011 10.9492 9.58829C10.9996 9.46648 11.0128 9.33243 10.9871 9.20311C10.9614 9.07379 10.8979 8.955 10.8047 8.86177C10.7114 8.76853 10.5926 8.70504 10.4633 8.67931C10.334 8.65359 10.1999 8.66679 10.0781 8.71725C9.95631 8.76771 9.85219 8.85316 9.77894 8.96279C9.70568 9.07242 9.66658 9.20132 9.66658 9.33317C9.66658 9.50998 9.73682 9.67955 9.86185 9.80457C9.98687 9.9296 10.1564 9.99984 10.3333 9.99984ZM6.99992 9.99984C7.13177 9.99984 7.26067 9.96074 7.3703 9.88748C7.47993 9.81423 7.56538 9.71011 7.61584 9.58829C7.6663 9.46648 7.6795 9.33243 7.65378 9.20311C7.62805 9.07379 7.56456 8.955 7.47132 8.86177C7.37809 8.76853 7.2593 8.70504 7.12998 8.67931C7.00066 8.65359 6.86661 8.66679 6.7448 8.71725C6.62298 8.76771 6.51886 8.85316 6.44561 8.96279C6.37235 9.07242 6.33325 9.20132 6.33325 9.33317C6.33325 9.50998 6.40349 9.67955 6.52851 9.80457C6.65354 9.9296 6.82311 9.99984 6.99992 9.99984ZM11.6666 1.99984H10.9999V1.33317C10.9999 1.15636 10.9297 0.98679 10.8047 0.861766C10.6796 0.736742 10.5101 0.666504 10.3333 0.666504C10.1564 0.666504 9.98687 0.736742 9.86185 0.861766C9.73682 0.98679 9.66658 1.15636 9.66658 1.33317V1.99984H4.33325V1.33317C4.33325 1.15636 4.26301 0.98679 4.13799 0.861766C4.01297 0.736742 3.8434 0.666504 3.66658 0.666504C3.48977 0.666504 3.3202 0.736742 3.19518 0.861766C3.07016 0.98679 2.99992 1.15636 2.99992 1.33317V1.99984H2.33325C1.80282 1.99984 1.29411 2.21055 0.919038 2.58562C0.543966 2.9607 0.333252 3.4694 0.333252 3.99984V13.3332C0.333252 13.8636 0.543966 14.3723 0.919038 14.7474C1.29411 15.1225 1.80282 15.3332 2.33325 15.3332H11.6666C12.197 15.3332 12.7057 15.1225 13.0808 14.7474C13.4559 14.3723 13.6666 13.8636 13.6666 13.3332V3.99984C13.6666 3.4694 13.4559 2.9607 13.0808 2.58562C12.7057 2.21055 12.197 1.99984 11.6666 1.99984ZM12.3333 13.3332C12.3333 13.51 12.263 13.6796 12.138 13.8046C12.013 13.9296 11.8434 13.9998 11.6666 13.9998H2.33325C2.15644 13.9998 1.98687 13.9296 1.86185 13.8046C1.73682 13.6796 1.66659 13.51 1.66659 13.3332V7.33317H12.3333V13.3332ZM12.3333 5.99984H1.66659V3.99984C1.66659 3.82303 1.73682 3.65346 1.86185 3.52843C1.98687 3.40341 2.15644 3.33317 2.33325 3.33317H2.99992V3.99984C2.99992 4.17665 3.07016 4.34622 3.19518 4.47124C3.3202 4.59627 3.48977 4.6665 3.66658 4.6665C3.8434 4.6665 4.01297 4.59627 4.13799 4.47124C4.26301 4.34622 4.33325 4.17665 4.33325 3.99984V3.33317H9.66658V3.99984C9.66658 4.17665 9.73682 4.34622 9.86185 4.47124C9.98687 4.59627 10.1564 4.6665 10.3333 4.6665C10.5101 4.6665 10.6796 4.59627 10.8047 4.47124C10.9297 4.34622 10.9999 4.17665 10.9999 3.99984V3.33317H11.6666C11.8434 3.33317 12.013 3.40341 12.138 3.52843C12.263 3.65346 12.3333 3.82303 12.3333 3.99984V5.99984ZM3.66658 9.99984C3.79844 9.99984 3.92733 9.96074 4.03697 9.88748C4.1466 9.81423 4.23205 9.71011 4.2825 9.58829C4.33296 9.46648 4.34617 9.33243 4.32044 9.20311C4.29472 9.07379 4.23122 8.955 4.13799 8.86177C4.04475 8.76853 3.92597 8.70504 3.79665 8.67931C3.66732 8.65359 3.53328 8.66679 3.41146 8.71725C3.28965 8.76771 3.18553 8.85316 3.11227 8.96279C3.03902 9.07242 2.99992 9.20132 2.99992 9.33317C2.99992 9.50998 3.07016 9.67955 3.19518 9.80457C3.3202 9.9296 3.48977 9.99984 3.66658 9.99984ZM3.66658 12.6665C3.79844 12.6665 3.92733 12.6274 4.03697 12.5542C4.1466 12.4809 4.23205 12.3768 4.2825 12.255C4.33296 12.1331 4.34617 11.9991 4.32044 11.8698C4.29472 11.7405 4.23122 11.6217 4.13799 11.5284C4.04475 11.4352 3.92597 11.3717 3.79665 11.346C3.66732 11.3203 3.53328 11.3335 3.41146 11.3839C3.28965 11.4344 3.18553 11.5198 3.11227 11.6295C3.03902 11.7391 2.99992 11.868 2.99992 11.9998C2.99992 12.1766 3.07016 12.3462 3.19518 12.4712C3.3202 12.5963 3.48977 12.6665 3.66658 12.6665Z" fill="#B6B6B6"/>
</svg>
