<svg fill="none" height="79" viewBox="0 0 128 79" width="128" xmlns="http://www.w3.org/2000/svg" xmlns:xlink="http://www.w3.org/1999/xlink"><linearGradient id="a" gradientUnits="userSpaceOnUse" x1="63.863" x2="63.863" y1="0" y2="55.9935"><stop offset="0" stop-color="#d0d6f3"/><stop offset="1" stop-color="#d0d6f3" stop-opacity="0"/></linearGradient><linearGradient id="b"><stop offset="0" stop-color="#3b4683"/><stop offset="1" stop-color="#5f6cb1"/></linearGradient><linearGradient id="c" gradientUnits="userSpaceOnUse" x1="86.2668" x2="86.2668" xlink:href="#b" y1="45.7949" y2="51.3787"/><linearGradient id="d" gradientUnits="userSpaceOnUse" x1="47.1977" x2="47.1977" y1="14.8901" y2="24.0414"><stop offset="0" stop-color="#6b78be"/><stop offset="1" stop-color="#4755a1"/></linearGradient><linearGradient id="e" gradientUnits="userSpaceOnUse" x1="64.6591" x2="64.6591" y1="31.4868" y2="55.9935"><stop offset="0" stop-color="#737eb4"/><stop offset="1" stop-color="#5e6bb1"/></linearGradient><linearGradient id="f" gradientUnits="userSpaceOnUse" x1="6.35297" x2="6.35297" y1="0" y2="24.5067"><stop offset="0" stop-color="#435099"/><stop offset="1" stop-color="#4755a2"/></linearGradient><linearGradient id="g" gradientUnits="userSpaceOnUse" x1="13.9994" x2="13.9994" y1="0" y2="3.10212"><stop offset="0" stop-color="#36417c"/><stop offset="1" stop-color="#4755a1"/></linearGradient><linearGradient id="h" gradientUnits="userSpaceOnUse" x1="64.659" x2="64.659" y1="44.3604" y2="55.9933"><stop offset="0" stop-color="#4755a1"/><stop offset="1" stop-color="#4a5695"/></linearGradient><linearGradient id="i" gradientUnits="userSpaceOnUse" x1="67.1034" x2="67.1034" y1="44.3604" y2="55.9933"><stop offset="0" stop-color="#303d7e"/><stop offset="1" stop-color="#354492"/></linearGradient><linearGradient id="j" gradientUnits="userSpaceOnUse" x1="44.3068" x2="44.3068" y1="31.4868" y2="34.5889"><stop offset="0" stop-color="#283374"/><stop offset="1" stop-color="#354492"/></linearGradient><linearGradient id="k" gradientUnits="userSpaceOnUse" x1="63.9741" x2="63.9741" y1="21.0942" y2="31.4863"><stop offset="0" stop-color="#838bb8"/><stop offset="1" stop-color="#5e6bb1"/></linearGradient><linearGradient id="l" gradientUnits="userSpaceOnUse" x1="43.3938" x2="43.3938" y1="21.0938" y2="31.4864"><stop offset="0" stop-color="#414b82"/><stop offset="1" stop-color="#4755a1"/></linearGradient><linearGradient id="m"><stop offset="0" stop-color="#46549d"/><stop offset="1" stop-color="#606db2"/></linearGradient><linearGradient id="n" gradientUnits="userSpaceOnUse" x1="86.2668" x2="86.2668" xlink:href="#m" y1="51.3789" y2="55.2372"/><linearGradient id="o"><stop offset="0" stop-color="#394482"/><stop offset="1" stop-color="#6b75ab"/></linearGradient><linearGradient id="p" gradientUnits="userSpaceOnUse" x1="84.8356" x2="84.8356" xlink:href="#o" y1="55.2368" y2="55.993"/><linearGradient id="q" gradientUnits="userSpaceOnUse" x1="87.6374" x2="87.6374" xlink:href="#o" y1="55.2368" y2="55.993"/><linearGradient id="r"><stop offset="0" stop-color="#48559d"/><stop offset="1" stop-color="#707bb3"/></linearGradient><linearGradient id="s" gradientUnits="userSpaceOnUse" x1="86.2668" x2="88.3846" xlink:href="#r" y1="42.499" y2="46.6545"/><linearGradient id="t" gradientUnits="userSpaceOnUse" x1="97.778" x2="97.778" xlink:href="#b" y1="45.7949" y2="51.3787"/><linearGradient id="u" gradientUnits="userSpaceOnUse" x1="97.778" x2="97.778" xlink:href="#m" y1="51.3789" y2="55.2372"/><linearGradient id="v" gradientUnits="userSpaceOnUse" x1="99.2093" x2="99.2093" xlink:href="#o" y1="55.2368" y2="55.993"/><linearGradient id="w" gradientUnits="userSpaceOnUse" x1="96.4073" x2="96.4073" xlink:href="#o" y1="55.2368" y2="55.993"/><linearGradient id="x" gradientUnits="userSpaceOnUse" x1="2.05425" x2="4.1721" xlink:href="#r" y1="0" y2="4.15544"/><linearGradient id="y" gradientUnits="userSpaceOnUse" x1="113.823" x2="113.823" y1="39.2931" y2="51.4858"><stop offset="0" stop-color="#707bb4"/><stop offset="1" stop-color="#606db2"/></linearGradient><linearGradient id="z"><stop offset="0" stop-color="#47559e"/><stop offset="1" stop-color="#434d84"/></linearGradient><linearGradient id="A" gradientUnits="userSpaceOnUse" x1="113.823" x2="113.823" xlink:href="#z" y1="47.5518" y2="55.9928"/><linearGradient id="B" gradientUnits="userSpaceOnUse" x1="19.947" x2="19.947" xlink:href="#z" y1="41.3359" y2="55.9934"/><path clip-rule="evenodd" d="m42.8592 16.9876-8.3328-16.9876-12.0895 24.646-3.5302-7.1966-18.9067 38.5438h37.8135 5.6213l-.0002.0003h47.0196l-.0002-.0003h9.686 27.586l-27.466-55.9932-13.7932 28.1186-5.2335-10.6692-4.843 9.8731-9.4459-19.25668-5.8979 12.02368-9.8544-20.0895z" fill="url(#a)" fill-rule="evenodd"/><path d="m87.3271 46.1427c.2653-.0706.5423-.083.8126-.0365.2704.0465.528.1509.7559.3063s.4209.3583.5662.5952c.1454.237.2398.5027.2771.7796s.0166.5586-.0607.8268c-.0774.2681-.2096.5165-.388.7287-.1784.2123-.3989.3836-.6469.5026-.2481.1191-.5181.1832-.7922.1881l-.0179-1.0333c.1309-.0024.2598-.033.3782-.0898s.2237-.1386.3088-.2399c.0852-.1014.1483-.2199.1853-.348.0369-.128.0468-.2625.029-.3947s-.0629-.259-.1323-.3721c-.0694-.1132-.1616-.21-.2704-.2842s-.2317-.124-.3608-.1463c-.1291-.0222-.2613-.0162-.388.0175z" fill="#373f6e"/><ellipse fill="#737fbf" rx=".451746" ry=".46047" transform="matrix(-1 0 0 1 95.8251 50.1231)"/><path d="m95.2961 47.613c0-.8609.6979-1.5588 1.5588-1.5588v4.0691h-1.5588z" fill="#373f6f"/><path d="m84.5645 47.4973c0-.9402.7621-1.7024 1.7023-1.7024s1.7024.7622 1.7024 1.7024v3.8814h-3.4047z" fill="url(#c)"/><path d="m44.8772 14.8901h4.64109v9.15124h-4.64109z" fill="url(#d)"/><path d="m50.6598 31.4868h27.9987v24.5067h-27.9987z" fill="url(#e)"/><path d="m0 0h12.7059v24.5067h-12.7059z" fill="url(#f)" transform="matrix(-1 0 0 1 50.6598 31.4868)"/><path d="m0 0h27.9987v3.10212h-27.9987z" fill="url(#g)" transform="matrix(-1 0 0 1 78.6586 31.4868)"/><path d="m59.7516 49.2677c0-2.7102 2.1971-4.9073 4.9074-4.9073 2.7102 0 4.9074 2.1971 4.9074 4.9073v6.7256h-9.8148z" fill="url(#h)"/><path d="m64.6592 44.3604c2.6997 0 4.8883 2.1885 4.8883 4.8883v6.7446h-2.3966v-9.1412c0-1.3762-1.1156-2.4917-2.4917-2.4917z" fill="url(#i)"/><path d="m37.9539 31.4868h12.7059v3.10212h-12.7059z" fill="url(#j)"/><path d="m44.8772 21.0942h30.1078l8.0861 10.3921h-32.4116z" fill="url(#k)"/><path d="m44.8768 21.0938 5.7829 10.3926h-14.5319z" fill="url(#l)"/><path d="m84.5645 51.3789h3.4047v3.8583h-1.1508l-.5516-3.8583-.6134 3.8583h-1.0889z" fill="url(#n)"/><path d="m84.0177 55.6149c0-.2088.1693-.3781.3781-.3781h1.2577v.7562h-1.2577c-.2088 0-.3781-.1693-.3781-.3781z" fill="url(#p)"/><path d="m88.4553 55.6149c0-.2088-.1692-.3781-.378-.3781h-1.2578v.7562h1.2578c.2088 0 .378-.1693.378-.3781z" fill="url(#q)"/><ellipse cx="84.4931" cy="49.4351" fill="#737fbf" rx=".451746" ry=".46047"/><path d="m85.2287 46.1427c-.2465-.0656-.5033-.081-.7557-.0454s-.4954.1215-.7152.2528c-.2198.1314-.4121.3056-.5658.5126-.1538.2071-.266.443-.3303.6943-.0644.2513-.0795.5131-.0446.7703.035.2573.1193.505.2481.729.1289.2241.2997.42.5029.5768.2031.1567.4346.2711.6811.3367l.256-1c-.1177-.0313-.2282-.0859-.3252-.1608-.097-.0748-.1786-.1684-.2401-.2753-.0615-.107-.1018-.2252-.1184-.3481-.0167-.1228-.0095-.2477.0212-.3677s.0843-.2326.1577-.3315c.0734-.0988.1652-.182.2701-.2447.105-.0627.221-.1037.3415-.1207s.2431-.0096.3608.0217z" fill="#373f6e"/><ellipse cx="86.2668" cy="44.5929" fill="url(#s)" rx="2.05425" ry="2.09393"/><path d="m99.4803 47.4973c0-.9402-.7621-1.7024-1.7023-1.7024s-1.7024.7622-1.7024 1.7024v3.8814h3.4047z" fill="url(#t)"/><path d="m99.4803 51.3789h-3.4047v3.8583h1.1508l.5516-3.8583.6134 3.8583h1.0889z" fill="url(#u)"/><path d="m100.027 55.6149c0-.2088-.169-.3781-.3778-.3781h-1.2578v.7562h1.2578c.2088 0 .3778-.1693.3778-.3781z" fill="url(#v)"/><path d="m95.5894 55.6149c0-.2088.1692-.3781.378-.3781h1.2577v.7562h-1.2577c-.2088 0-.378-.1693-.378-.3781z" fill="url(#w)"/><ellipse cx="99.5754" cy="50.1231" fill="#737fbf" rx=".451746" ry=".46047"/><path d="m100.26 47.5314c0-.8158-.6616-1.4772-1.4775-1.4772.2136.5331.3234 1.1021.3234 1.6764v2.3927h1.1541z" fill="#373f6f"/><ellipse fill="url(#x)" rx="2.05425" ry="2.09393" transform="matrix(-1 0 0 1 97.7781 44.593)"/><path clip-rule="evenodd" d="m19.9469 26.9941c-3.3133 0-5.9993 2.686-5.9993 5.9993v9.1734c0 3.3133 2.686 5.9993 5.9993 5.9993s5.9992-2.686 5.9992-5.9993v-9.1734c0-3.3133-2.6859-5.9993-5.9992-5.9993zm93.8761 12.2991c-2.17 0-3.929 1.7591-3.929 3.929v4.3345c0 2.1699 1.759 3.9291 3.929 3.9291s3.929-1.7592 3.929-3.9291v-4.3345c0-2.1699-1.759-3.929-3.929-3.929z" fill="url(#y)" fill-rule="evenodd"/><path d="m113.378 47.5518h.889152v8.44103h-.889152z" fill="url(#A)"/><path d="m0 55.9927h127.726c0 5.6821-4.606 10.2885-10.289 10.2885h-6.24c-9.771 7.7049-23.2119 8.7936-34.096 2.7618l-.6892-.382c-8.0669-4.4706-17.668-5.2519-26.3516-2.1445l-7.8627 2.8136c-4.5994 1.6458-9.6072 1.7632-14.2786.3347l-6.9747-2.1328c-2.5696-.7858-5.3601-.2928-7.5049 1.3258-5.52589 4.1702-13.4393.2281-13.4393-6.6947z" fill="#b8c3f6"/><path d="m19.2682 41.3359h1.35763v14.6575h-1.35763z" fill="url(#B)"/></svg>