<svg width="25" height="24" viewBox="0 0 25 24" fill="none" xmlns="http://www.w3.org/2000/svg">
<path d="M9.5 22H15.5C20.5 22 22.5 20 22.5 15V9C22.5 4 20.5 2 15.5 2H9.5C4.5 2 2.5 4 2.5 9V15C2.5 20 4.5 22 9.5 22Z" stroke="#FF9900" stroke-width="1.5" stroke-linecap="round" stroke-linejoin="round"/>
<path d="M16.78 13.6099C15.65 14.7399 14.03 15.0899 12.6 14.6399L10.01 17.2199C9.82995 17.4099 9.45995 17.5299 9.18995 17.4899L7.98995 17.3299C7.58995 17.2799 7.22995 16.8999 7.16995 16.5099L7.00995 15.3099C6.96995 15.0499 7.09995 14.6799 7.27995 14.4899L9.85995 11.9099C9.41995 10.4799 9.75995 8.85989 10.89 7.72989C12.51 6.10989 15.15 6.10989 16.78 7.72989C18.4 9.33989 18.4 11.9799 16.78 13.6099Z" stroke="#FF9900" stroke-width="1.5" stroke-miterlimit="10" stroke-linecap="round" stroke-linejoin="round"/>
<path d="M10.9501 16.2799L10.1001 15.4199" stroke="#FF9900" stroke-width="1.5" stroke-miterlimit="10" stroke-linecap="round" stroke-linejoin="round"/>
<path d="M13.8944 10.7H13.9034" stroke="#FF9900" stroke-width="2" stroke-linecap="round" stroke-linejoin="round"/>
</svg>
