<svg width="20" height="20" viewBox="0 0 20 20" fill="none" xmlns="http://www.w3.org/2000/svg">
<path fill-rule="evenodd" clip-rule="evenodd" d="M5.33 9.15527e-05H14.66C18.06 9.15527e-05 20 1.92009 20 5.33009V14.6701C20 18.0601 18.07 20.0001 14.67 20.0001H5.33C1.92 20.0001 0 18.0601 0 14.6701V5.33009C0 1.92009 1.92 9.15527e-05 5.33 9.15527e-05ZM10.82 10.8301H13.66C14.12 10.8201 14.49 10.4501 14.49 9.99009C14.49 9.53009 14.12 9.16009 13.66 9.16009H10.82V6.34009C10.82 5.88009 10.45 5.51009 9.99 5.51009C9.53 5.51009 9.16 5.88009 9.16 6.34009V9.16009H6.33C6.11 9.16009 5.9 9.25009 5.74 9.40009C5.59 9.56009 5.5 9.76909 5.5 9.99009C5.5 10.4501 5.87 10.8201 6.33 10.8301H9.16V13.6601C9.16 14.1201 9.53 14.4901 9.99 14.4901C10.45 14.4901 10.82 14.1201 10.82 13.6601V10.8301Z" fill="white"/>
</svg>
