<svg fill="none" height="10" viewBox="0 0 26 10" width="26" xmlns="http://www.w3.org/2000/svg"><path d="m26.0003 7.66551c-.0446.12038-.0839.24285-.1353.35975-.1868.42238-.5104.65897-.9551.7195-.2423.03271-.4426-.10646-.4785-.32148-.0386-.23171.0826-.42168.3384-.45717.2863-.03966.438-.20945.4481-.47665.0203-.54415.0061-1.0897.0061-1.66377-.2491 0-.484.00278-.7182-.00069-.3181-.00557-.4853-.14822-.4846-.40499.0014-.25676.1665-.39176.4894-.39872.0887-.00208.178 0 .2667 0 .0061-.02226.0122-.04453.0182-.0668-.1279-.07237-.2511-.15587-.3844-.21571-.928-.41612-1.9094-.62487-2.9044-.78074-1.2833-.2011-2.5747-.23032-3.8696-.22545-2.5375.00904-5.0757.00278-7.6132.00208-.09275 0-.18683.00418-.27889-.00765-.23283-.02992-.39054-.20319-.3831-.40846.00813-.20806.17396-.37715.4068-.3848.32959-.01044.65989-.00279.98959-.00418.0656 0 .1313-.00696.2118-.01183 0-.70489 0-1.39586 0-2.118152-.4047 0-.8014-.015309-1.19598.003479-.61458.029226-1.22849.083502-1.84307.124556-.27345.018092-.40679.149607-.45417.441167-.08326.51145-.21186 1.01454-.32963 1.56217.32963 0 .63218-.00765.93406.00209.29917.00974.46973.22406.40611.49544-.05279.22546-.22133.28878-.41965.30548-1.08703.09115-2.03801-.1677-2.7751-1.06673-.3276-.39942-.35941-.38272-.8217-.16353-.82712.39107-1.71109.51771-2.60251.61931-.22674.02574-.45281.05497-.67753.09324-.290368.0501-.409495.19275-.418971.49057-.004738.14613-.000677.29295-.000677.453.322858.07376.829148-.11064.797338.46343-.02775.48918-.47245.32148-.779063.38063 0 .42933-.028427.86354.0088 1.29079.029781.34723.261263.57964.587513.68054.47582.14752.95639.28112 1.45794.42725.08325-.81623.41559-1.48285 1.07823-1.94698.45484-.318.96113-.45995 1.51141-.41959.71341.05288 1.29347.37227 1.73952.94426.44198.56642.57329 1.2233.49207 1.95045h11.04426c.0304-.34722.0223-.69862.0974-1.02985.2782-1.22747 1.4133-1.99359 2.6899-1.84329 1.1168.13151 2.0454 1.20172 2.0644 2.38049.0203 1.27339-.8461 2.34708-2.0448 2.52592-.9903.14751-1.7713-.22337-2.3575-1.04029-.092-.12804-.1807-.17466-.331-.17466-3.7477.00348-7.4948.00348-11.24253 0-.15161 0-.2396.04871-.32895.17744-.52794.75708-1.25692 1.13912-2.15849 1.06464-.97264-.08071-1.67047-.61373-2.05831-1.54129-.06227-.14892-.14755-.21293-.28428-.2519-.49546-.14126-.99024-.28599-1.48502-.43142-.825081-.24286-1.2589449-.83711-1.2596218-1.72361 0-.74804.0277511-1.49746-.0081222-2.24341-.0318122-.66175.365501-1.31793 1.252854-1.407.89684-.09046 1.81262-.13291 2.65192-.51562.77838-.35558 1.54119-.74943 2.3013-1.144669.94489-.492659 1.94257-.73620502 3.0005-.73202995 1.10805.00417508 2.21605.00487092 3.32475 0 1.198-.00556676 2.2992.31591395 3.3071.98670895.9151.60887 1.8349 1.20938 2.7602 1.80224.1279.08211.2937.1336.4447.14126 1.6488.08559 3.2854.24911 4.8672.77099.3046.10021.6045.22059.8975.3528.5869.26372.9503.73272 1.1311 1.35898.0162.05637.0399.10995.0595.16492-.0007.69585-.0007 1.39169-.0007 2.08754zm-14.2322-4.7575h5.5022c.0081-.02087.0169-.04245.025-.06332-.8819-.54067-1.7436-1.11962-2.6505-1.61158-.8854-.480134-1.8695-.468305-2.8618-.420987-.0054.09046-.0135.166307-.0135.242847-.002.61443-.0014 1.22887-.0014 1.85304zm7.7304 4.60372c-.0007.93591.7256 1.68881 1.6366 1.69508.9117.00626 1.6705-.7717 1.6617-1.70343-.0088-.93244-.7452-1.6763-1.6576-1.6756-.9145 0-1.64.74525-1.6407 1.68395zm-14.22275-1.68465c-.91173 0-1.64882.74595-1.65559 1.67769-.00677.93382.75063 1.70969 1.66303 1.70204.91105-.00766 1.63596-.75917 1.63528-1.69648-.00135-.93869-.72762-1.68325-1.64272-1.68325zm1.07755-3.1988c.02504-.01183.05009-.02435.07513-.03618.08325-.38759.16651-.77518.26127-1.21773-.37498.19344-.69243.35697-.95234.49057.2105.26024.41356.51144.61594.76334z" fill="#f90"/></svg>