<svg fill="none" height="17" viewBox="0 0 26 17" width="26" xmlns="http://www.w3.org/2000/svg"><path d="m5.55752 11.2249c-.63792 0-1.25026 0-1.86261 0-.93485 0-1.37671-.2633-1.59337-.9613-.5271 0-1.05918.001-1.590539-.0006-.335298-.001-.51857516-.1207-.51076101-.32951.00710377-.19921.18540801-.30816.51076101-.30923.530649-.00107 1.061299-.00053 1.605449-.00053 0-.21577 0-.41338 0-.6425-.24863 0-.50223.00107-.75584 0-.32322-.0016-.502234-.11269-.507917-.31137-.006394-.20882.176887-.32685.513607-.32739.65709-.00107 1.31419-.0016 1.97129 0 .31541.00054.49656.1207.49513.32098-.00142.19975-.18256.31457-.50081.31778-.10514.00107-.21098 0-.33317 0v.6425c.25858 0 .5136-.00161.76792.00053.31399.00214.49513.12284.49229.32365-.00355.19979-.18328.31299-.50366.31509-.23087.0016-.46174.0011-.69261.0027-.01563 0-.03055.0096-.04547.0149.07601.227.21738.3039.57967.3039 1.3142.0011 2.6284.0006 3.94259.0006.14208 0 .28415.0032.42623-.0011.34382-.0096.55338-.157.55551-.4128.0064-.79422.0064-1.58893 0-2.3831-.00213-.23179-.19038-.38828-.48163-.40377-.25432-.01335-.51076-.00267-.79562-.00267 0 .31244.00213.61046-.00071.90901-.00214.25635-.14705.37065-.48022.37171-.67486.00267-1.34972.00267-2.02457 0-.32323-.0016-.4724-.11482-.47525-.35516-.00355-.29962-.00071-.5987-.00071-.91968-.28912 0-.56404-.0187-.83043.00801-.13213.01335-.26497.09827-.36868.17304-.1982.14367-.42836.17785-.61661.06836-.19678-.11482-.22164-.30709-.05186-.4796.25787-.2633.60524-.41338 1.04141-.41498 1.54507-.00481 3.09015-.01335 4.63451.00801.30759.00427.61163.13566.93272.21203.51573-1.04893 1.25024-2.01401 2.95944-2.40816-.1194-.05875-.1996-.08706-.26-.13032-1.0769-.77441-1.3582-1.95633-.7075-2.95933.6386-.98591 2.0856-1.586749 3.4737-1.4436158 1.5351.1586218 2.7058.9997958 2.9552 2.1272358.0305.13726.0696.28306.0376.41551-.0263.11003-.1527.20563-.233.3087-.0454.05875-.1399.12925-.1229.17625.0718.20348.1336.41979.2778.59496.2856.34609.2834.62861-.1179.90901-.162.11322-.2586.23499-.3353.3888-.2039.40751-.6117.6409-1.2503.69858.4681.41925.7317.94639 1.5067 1.07083.2131.03418.4483.05127.6599.02136.7197-.10094 1.3597-.03044 1.8634.42353.1129-.14367.2003-.28039.3182-.40056.4099-.41712.964-.64036 1.6559-.65532.3161-.00694.4767.11483.4774.35303.0028.82782.0028 1.65564 0 2.48347-.0007.24995-.1613.36851-.4916.3621-.1229-.00213-.2465-.01922-.368-.03685-.1108-.01602-.2195-.04166-.3601-.06889.0348.06836.0596.12176.0888.17304.4461.78353.8943 1.56643 1.3362 2.35153.0582.1036.1229.1501.2855.1528 1.7682.0267 3.2657 1.0841 3.3431 2.3526.0874 1.4372-1.192 2.602-3.0333 2.7612-1.7412.1506-3.4042-.7702-3.7167-2.0696-.0341-.1415-.103-.1682-.2721-.1677-1.9976.0032-3.9959.0032-5.9934 0-.1578 0-.2252.024-.2586.1565-.3005 1.1995-1.7341 2.084-3.35088 2.0786-1.62747-.0053-3.03686-.8823-3.34019-2.0882-.03125-.1239-.0959-.149-.24295-.1469-.34595.0059-.69261.0038-1.03857.0011-.33459-.0022-.48306-.1159-.48519-.3691-.00639-.9303.27776-1.81.83754-2.6372.1165-.1736.2877-.3285.45606-.5165zm7.64298 2.8749c-.4199-.4139-.4362-.8705-.4163-1.3346.0092-.2067.0064-.4139.0007-.6206-.0156-.5191-.5307-.9149-1.2183-.9181-1.3312-.0059-2.6632-.0123-3.99445.0032-.6912.008-1.25808.2393-1.61256.6943-.51928.666-.77004 1.3966-.84037 2.1758zm3.5788-6.80039c-.5413-.13085-.9533-.42726-1.3049-.77975-.2131-.2131-.4135-.43367-.6315-.6441-.3297-.31724-.7339-.56132-1.2659-.66012-1.1565-.2147-2.1226.01869-2.8707.7178-.6429.60137-.96253 1.3133-1.17138 2.05514-.09022.32044-.13426.64837-.20317.99445 1.20905 0 2.34355.00107 3.47805-.00374.0568 0 .1484-.05073.1633-.09026.1556-.42352.4341-.79631.7985-1.12103-.184-.20402-.3836-.38721-.5193-.59443-.0604-.09293-.0469-.2649.0334-.34341.081-.07904.2941-.12818.4333-.11269.1187.01335.2423.12551.3169.21577.5043.61526 1.209 1.03825 2.1155 1.27217.1115.02884.2294.04273.304.05608.1108-.32899.2138-.63555.3239-.96188zm.8319 1.74537c.0028.01229.0121.07211.0305.12979.3552 1.14663.7055 2.29443 1.0713 3.43943.1527.4796.0604.924-.255 1.3491-.0313.0422-.0576.0865-.0974.1474.4334 0 .8326-.0058 1.2311.0027.1606.0032.2543-.0369.3467-.1357.5228-.5629 1.0514-1.1231 1.5905-1.6775.1108-.1143.1158-.2035.0441-.3269-.53-.9154-1.0528-1.8329-1.5771-2.74993-.1108-.19387-.2209-.38774-.3047-.53462-.7196.12284-1.3952.23874-2.08.35623zm-1.0549-6.79081c-.0931-.8791-1.349-1.654044-2.5709-1.60117-1.4179.060885-2.5552.98644-2.4756 2.01455.0703.90312 1.138 1.7961 2.129 1.76726 0-.28573-.0022-.57199 0-.85773.0057-.74343.765-1.31757 1.7489-1.32238.3893-.00213.7779-.00053 1.1686-.00053zm-7.19968 8.33163c.68978 0 1.41578-.0005 2.14178 0 1.2645.0005 2.1368.6559 2.1375 1.606v.627h1.6794c0-.6217.0561-1.2369-.015-1.8431-.0838-.7152-.6222-1.12212-1.5528-1.29035-.2217-.04006-.4554-.05822-.6834-.05929-1.0642-.00587-2.129-.00267-3.19317-.00267-.1577 0-.3147 0-.51431 0zm8.09688 3.2771c.4305-.2788.5363-.6281.4312-.9902-.3666-1.2679-.7665-2.5304-1.1601-3.79353-.0163-.05128-.0959-.12231-.1584-.13032-.8034-.10041-1.5145-.35303-2.1993-.74718-.1946.27292-.3779.53035-.5726.80273.1165.02937.1649.04432.2153.05394 1.3327.2414 2.1872 1.05696 2.1844 2.08506-.0014.5207-.005 1.0409.005 1.5616.0014.063.0568.1661.1193.1822.6138.1596.9761.4822 1.1352.9757zm2.6426.8962c.1499.9891 1.4968 1.7187 2.8706 1.5627 1.3171-.1495 2.2903-1.0564 2.1702-2.0231-.1285-1.0372-1.2516-1.8132-2.5957-1.7907-.066.001-.1605.0074-.1918.0395-.26.2606-.5086.5282-.7601.7936 1.0869-.4561 2.1319-.079 2.5254.501.4277.6307.0952 1.4062-.7452 1.7299-.949.3653-1.8612.0635-2.4543-.8129-.2728 0-.5456 0-.8191 0zm-13.22012-.0005c.21738.9533 1.36179 1.6444 2.60566 1.5915 1.21336-.0513 2.31726-.7883 2.37696-1.6001-.1862 0-.3737.0112-.557-.0032-.1989-.0155-.2877.0385-.3687.1784-.2749.4775-.7849.7397-1.46617.7707-.65.0293-1.23535-.1586-1.51098-.6003-.21595-.3466-.50863-.3755-.90786-.3456-.05186.0038-.10442.0054-.17191.0086zm7.61452-9.95207c.2515.05501.4774.11376.7097.15382.6244.10788.8823-.03098 1.0045-.50631.022-.08705.1243-.1677.2095-.2382.0739-.06142.1755-.10468.2082-.12284-.1776-.41444-.341-.79524-.5136-1.19794-.2196 0-.4938-.01121-.7665.00267-.4732.0235-.8326.29428-.8475.65105-.0178.41231-.0043.82568-.0043 1.25775zm-.7317 8.66387c.1222.3663.5996.6291 1.1629.6382.4518.0069.9043.0027 1.3561-.0016.1108-.0011.2217-.0214.3318-.0326-.0455-.3541-.3112-.5896-.726-.5992-.7069-.0166-1.4137-.0048-2.1248-.0048zm5.5346-5.4642c-.2593-.58695-.6252-.77388-1.2183-.62914-.4895.11963-.8056.58054-.6493.94745.5207.05501 1.4136-.09453 1.8676-.31831zm2.0032.56666c0-.58215 0-1.16162 0-1.74324-.4823.094-.8403.46946-.8403.87109 0 .40056.3559.77495.8403.87215zm.5889 6.17714c.2451.2852.6095.3792.9903.2788.3488-.0919.5889-.3632.564-.6371-.0277-.3029-.3281-.5448-.7409-.595-.3161-.0385-.6549.0918-.7793.2996.0064.0032.0128.0091.0199.0091.2039.0021.4085.0021.6124.0059.2934.0053.466.1297.4603.3274-.0057.1853-.179.306-.4561.3108-.2109.0032-.4226.0005-.6706.0005zm-16.75776-7.36013v.619h1.24458c0-.2163 0-.41872 0-.619-.42551 0-.83043 0-1.24458 0zm4.94276 7.37083c-.47591 0-.92131 0-1.37453 0 .29338.3942 1.01015.3995 1.37453 0z" fill="#f90"/></svg>