<svg fill="none" height="18" viewBox="0 0 19 18" width="19" xmlns="http://www.w3.org/2000/svg"><path clip-rule="evenodd" d="m7.39279 11.2124c2.85161 0 6.64301.3211 6.64301 3.0992 0 2.9265-4.41779 3.1021-6.31278 3.1126h-.68802c-2.02052-.0105-6.285214-.1851-6.285214-3.0951 0-2.9297 4.417784-3.1055 6.312774-3.1161l.22767-.0006zm0 1.3125c-2.43163 0-5.3305.3123-5.3305 1.8042 0 1.183 1.79375 1.7833 5.3305 1.7833 3.53671 0 5.33051-.6064 5.33051-1.8008 0-1.1856-1.7938-1.7867-5.33051-1.7867zm7.97531-1.7212c2.3678.3543 2.8639 1.4507 2.8639 2.3073 0 .6379-.2756 1.5015-1.5907 1.9994-.0761.0289-.1549.0429-.2328.0429-.2651 0-.5145-.1619-.6134-.4235-.1286-.3386.042-.7184.3807-.8461.7437-.2818.7437-.6257.7437-.7727 0-.4961-.5871-.8356-1.7447-1.008-.3588-.0542-.6064-.3885-.553-.7463.0542-.3588.3946-.5994.7463-.553zm-7.97531-10.0537c2.47712 0 4.49321 2.016 4.49321 4.49312.0052 1.19351-.4577 2.3205-1.3012 3.16925-.84176.84963-1.96614 1.3195-3.16226 1.32388h-.02975c-2.478 0-4.494-2.016-4.494-4.49313 0-2.47712 2.016-4.49312 4.494-4.49312zm6.20161.98332c1.7194.28175 2.9672 1.75263 2.9672 3.4965-.0035 1.75438-1.3134 3.26113-3.0477 3.50438-.0306.00437-.0612.00612-.0918.00612-.322 0-.6029-.23712-.6493-.56525-.0499-.35875.1995-.69125.5583-.74112 1.092-.15313 1.9162-1.10075 1.918-2.205 0-1.09725-.7858-2.023-1.8664-2.19975-.3579-.0595-.6003-.39638-.5416-.75425.0586-.35788.3972-.5985.7533-.54163zm-6.20161.32918c-1.75438 0-3.1815 1.42712-3.1815 3.18062s1.42712 3.18063 3.1815 3.18063h.02712c.8435-.0035 1.638-.33513 2.23388-.93625.59671-.59938.92311-1.3965.91961-2.24175 0-1.75613-1.42711-3.18325-3.18061-3.18325z" fill="#f90" fill-rule="evenodd"/></svg>