<svg fill="none" height="24" viewBox="0 0 24 24" width="24" xmlns="http://www.w3.org/2000/svg"><path clip-rule="evenodd" d="m2 11.9999c0-5.51999 4.47-9.99999 10-9.99999 5.52 0 10 4.48 10 9.99999 0 5.52-4.48 10-10 10-5.53 0-10-4.48-10-10zm5.52 1.2c-.66 0-1.2-.54-1.2-1.2s.54-1.199 1.2-1.199 1.19.539 1.19 1.199-.53 1.2-1.19 1.2zm3.28-1.2c0 .66.54 1.2 1.2 1.2s1.19-.54 1.19-1.2-.53-1.199-1.19-1.199-1.2.539-1.2 1.199zm4.48 0c0 .66.53 1.2 1.2 1.2.66 0 1.19-.54 1.19-1.2s-.53-1.199-1.19-1.199c-.67 0-1.2.539-1.2 1.199z" fill="#fff" fill-rule="evenodd"/></svg>