<svg fill="none" height="18" viewBox="0 0 18 18" width="18" xmlns="http://www.w3.org/2000/svg"><path d="m3.80079 0c.20412.0478236.41058.0862699.61141.144408 1.31104.379776 2.28423 1.564582 2.42125 2.919112.04739.46886-.00423.92084-.12998 1.37094-.01643.05908-.00141.15707.03894.19786.86668.87442 1.73851 1.74322 2.60988 2.61295.01595.01594.03707.02719.04645.03376 1.31436-1.31375 2.62346-2.62233 3.94536-3.94357-.1558-.20724-.0484-.39525.0689-.60624.2628-.47307.6161-.83503 1.0924-1.10087.4697-.2621.9113-.57436 1.3664-.863173.2337-.148628.366-.135031.5608.058138.258.255995.5152.512465.7709.770805.1783.18004.1957.32023.061.53262-.4082.64234-.8174 1.2842-1.2317 1.92279-.0493.07595-.1234.14113-.199.1927-.2032.13831-.4162.26256-.6194.40087-.1769.12003-.3505.16035-.5143.03236-1.3204 1.31936-2.6328 2.63123-3.9561 3.95388.0174.01828.0549.06142.0948.10174.8334.83316 1.6681 1.66492 2.4987 2.50092.0844.0848.1544.1083.2745.0712 2.0055-.6128 4.1119.7422 4.3681 2.8193.0413.3329.0075.6761-.0047 1.0141-.0056.1505-.0943.2645-.2417.3156-.1482.0515-.2754.0065-.3838-.1022-.4312-.4314-.8643-.8599-1.2918-1.295-.084-.0858-.1567-.1097-.2764-.0746-.4321.1257-.869.2344-1.3016.3582-.0526.015-.1159.076-.1309.128-.1291.4492-.2534.8998-.3651 1.3536-.015.0605.0267.1585.0746.2077.4139.4234.8334.8412 1.2547 1.257.1244.1229.2163.2527.1516.4342-.0634.1777-.2083.2316-.3852.2527-1.8911.2279-3.5066-.9452-3.8623-2.8094-.1018-.534-.0535-1.0591.092-1.58.0178-.0643.0061-.1698-.0362-.2124-.8699-.8791-1.74646-1.7522-2.62158-2.6261-.00797-.008-.02017-.0117-.01079-.0061-.20881.2086-.41339.4135-.64895.6489.04505.0356.12482.0863.18957.1514.40354.4056.4927.9603.23556 1.4324-.25949.4754-.76579.693-1.33216.5884-.06569-.0122-.1647.0371-.21725.0891-1.21015 1.2022-2.41796 2.4071-3.62201 3.6158-.30782.309-.66585.4422-1.08487.3099-.16564-.0525-.32706-.1612-.4561-.2813-.33878-.315-.66021-.6493-.986324-.9785-.457033-.4609-.457502-1.0652.003754-1.528 1.20921-1.2115 2.42031-2.4212 3.63374-3.6289.08728-.0868.11637-.1581.08963-.2879-.10746-.5223.13701-1.02823.59545-1.27626.45657-.24709 1.00979-.16832 1.39597.20208.07602.07267.14312.15472.20365.22128.21913-.21847.42466-.42336.6391-.63716-.023-.02485-.06147-.06751-.10183-.1083-.83336-.83317-1.66859-1.66445-2.49867-2.50043-.08727-.08767-.15766-.09939-.27544-.06517-2.02333.59217-4.065433-.72251-4.3704344-2.80893-.0051616-.03376-.022054-.06564-.0333156-.09846 0-.25787 0-.51574 0-.77361.0112616-.02579.0314386-.05111.0328463-.07737.0084462-.18426.0732007-.33476.2590167-.39759.190509-.06423.319548.04361.444833.17067.407294.41212.821154.81769 1.226574 1.23122.08493.08674.1586.10549.27685.07173.42043-.12049.84462-.22974 1.26928-.33664.10276-.02578.15297-.07783.17924-.18004.10746-.42385.21679-.84769.33785-1.26779.03426-.11815.01502-.19176-.07132-.27663-.43451-.42619-.86245-.85895-1.29368-1.288419-.10886-.108307-.15813-.233961-.10933-.381651.05068-.154723.17033-.2297407.32799-.2531836.0488-.0075017.09714-.0253184.14641-.0384464zm13.43791 14.258c.0122-.0089.0239-.0178.0361-.0272 0-.0328.0047-.0666-.0004-.0985-.268-1.6672-2.0403-2.7011-3.6178-2.0948-.2811.1078-.4613.0586-.6673-.1482-2.2875-2.29646-4.58017-4.58777-6.87847-6.87392-.20271-.20161-.24635-.38025-.14124-.65218.56308-1.45909-.27826-3.12119-1.78262-3.547855-.13326-.037509-.27169-.056263-.40776-.083926.0244.075955.05865.11487.09525.150972.26512.265379.5293.531689.79629.795179.12857.1266.17127.26303.12012.44448-.17221.6128-.33503 1.22841-.49551 1.84496-.04458.1702-.13795.27663-.30828.32164-.633.16738-1.26553.3357-1.89711.50777-.14547.03938-.26606.00703-.37164-.09236-.08071-.07643-.15813-.15613-.23649-.23584-.23649-.24099-.47299-.48246-.736697-.75205 0 .08955-.005631.12941.000938.16738.295149 1.69352 2.048199 2.68562 3.660959 2.06579.23509-.09049.40354-.05157.58091.12613 2.31426 2.31991 4.6318 4.63563 6.95355 6.94803.1793.1786.2116.3479.1211.5809-.6086 1.5655.3275 3.2848 1.9703 3.6304.0685.0145.1384.0215.2534.0389-.0742-.0797-.1122-.1224-.1521-.1627-.2524-.2532-.5006-.5106-.7596-.7572-.1516-.1444-.2009-.2959-.1417-.5031.1712-.6011.3317-1.205.4894-1.8103.0464-.1781.1435-.2818.3223-.3286.6222-.1623 1.244-.3268 1.8633-.4989.1676-.0464.298-.0098.4158.1078.1656.166.3331.3301.4974.4975.1403.1449.2782.293.4176.4398zm-12.34507-2.6275c-.01407.0113-.03847.0272-.05865.0474-1.20687 1.2054-2.41374 2.4104-3.61873 3.6172-.17643.1768-.17314.3352.00704.5176.30453.3085.61282.6138.9197.9204.2501.2499.37773.2489.63159-.0042 1.1651-1.1642 2.33021-2.3284 3.49485-3.4926.04082-.0408.07977-.0839.11074-.1167-.49927-.4998-.99056-.9921-1.48654-1.4891zm9.18617-8.59183c.2084.26397.1999.399-.0399.63859-1.3302 1.32968-2.6615 2.65936-3.9917 3.98951-.0441.04407-.08497.09049-.10233.10925.09433.1158.17783.21801.27493.33757.0634-.07267.1061-.12893.1558-.17863 1.3134-1.31374 2.6277-2.62655 3.9421-3.93982.2604-.26021.3772-.271.6649-.06001.2796-.14113.5278-.31273.6761-.60717.0864-.17161.2051-.32727.3088-.48996.191-.29913.3815-.59873.5504-.86411-.1656-.17254-.3135-.32726-.4641-.48433-.4382.27991-.8746.5767-1.3298.8416-.2909.16973-.4997.39525-.6452.70751zm-8.97783 7.60673c.0535.106.08447.234.16377.3151.58982.602 1.18246 1.2017 1.78825 1.7868.26793.2588.68554.1266.77986-.226.05255-.1955-.02299-.3526-.16048-.4895-.56355-.5617-1.12616-1.1252-1.68924-1.6874-.03284-.0328-.06663-.067-.10464-.0933-.15813-.1078-.32564-.1252-.49645-.0347-.16376.0868-.24587.2274-.28107.429zm2.11672-.1059c.07977.0783.1769.1734.24259.2381.20083-.1997.40542-.4027.60203-.5977-.07414-.0751-.1633-.1651-.24541-.24854-.19849.20114-.39791.40324-.59921.60814z" fill="#f90"/></svg>